<svg width="20" height="21" viewBox="0 0 20 21" fill="none" xmlns="http://www.w3.org/2000/svg">
<g id="fluent:shifts-availability-20-regular">
<path id="Vector" d="M11.9161 6.1831C11.6838 4.96103 11.0045 3.86936 10.0107 3.12112C9.01699 2.37289 7.78009 2.02179 6.54143 2.13633C5.30277 2.25088 4.15123 2.82286 3.31155 3.74064C2.47186 4.65843 2.00428 5.85616 2.00006 7.1001C2.00026 8.26713 2.40852 9.39736 3.15416 10.2951C3.8998 11.1929 4.93589 11.8017 6.08306 12.0161C6.03306 12.3431 6.00406 12.6771 6.00006 13.0171C4.51999 12.7624 3.1892 11.962 2.2704 10.774C1.3516 9.58603 0.911563 8.09676 1.03715 6.60018C1.16273 5.10361 1.84481 3.7085 2.94874 2.69025C4.05268 1.67201 5.49824 1.10462 7.00006 1.1001C8.41803 1.10028 9.79015 1.60248 10.8732 2.5177C11.9563 3.43291 12.6803 4.70203 12.9171 6.1001C12.5822 6.10431 12.247 6.13205 11.9161 6.1831ZM11.3541 10.7461C11.2602 10.6522 11.1328 10.5995 11.0001 10.5995C10.8673 10.5995 10.7399 10.6522 10.6461 10.7461C10.5522 10.84 10.4994 10.9673 10.4994 11.1001C10.4994 11.2329 10.5522 11.3602 10.6461 11.4541L12.2931 13.1001L10.6461 14.7461C10.5522 14.84 10.4994 14.9673 10.4994 15.1001C10.4994 15.2329 10.5522 15.3602 10.6461 15.4541C10.7399 15.548 10.8673 15.6007 11.0001 15.6007C11.1328 15.6007 11.2602 15.548 11.3541 15.4541L13.0001 13.8071L14.6461 15.4541C14.7399 15.548 14.8673 15.6007 15.0001 15.6007C15.1328 15.6007 15.2602 15.548 15.3541 15.4541C15.4479 15.3602 15.5007 15.2329 15.5007 15.1001C15.5007 14.9673 15.4479 14.84 15.3541 14.7461L13.7071 13.1001L15.3541 11.4541C15.4479 11.3602 15.5007 11.2329 15.5007 11.1001C15.5007 10.9673 15.4479 10.84 15.3541 10.7461C15.2602 10.6522 15.1328 10.5995 15.0001 10.5995C14.8673 10.5995 14.7399 10.6522 14.6461 10.7461L13.0001 12.3931L11.3541 10.7461ZM13.0001 19.1001C14.5914 19.1001 16.1175 18.468 17.2427 17.3427C18.3679 16.2175 19.0001 14.6914 19.0001 13.1001C19.0001 11.5088 18.3679 9.98268 17.2427 8.85746C16.1175 7.73224 14.5914 7.1001 13.0001 7.1001C11.4088 7.1001 9.88264 7.73224 8.75742 8.85746C7.6322 9.98268 7.00006 11.5088 7.00006 13.1001C7.00006 14.6914 7.6322 16.2175 8.75742 17.3427C9.88264 18.468 11.4088 19.1001 13.0001 19.1001ZM13.0001 18.1001C11.674 18.1001 10.4022 17.5733 9.46453 16.6356C8.52684 15.6979 8.00006 14.4262 8.00006 13.1001C8.00006 11.774 8.52684 10.5022 9.46453 9.56456C10.4022 8.62688 11.674 8.1001 13.0001 8.1001C14.3261 8.1001 15.5979 8.62688 16.5356 9.56456C17.4733 10.5022 18.0001 11.774 18.0001 13.1001C18.0001 14.4262 17.4733 15.6979 16.5356 16.6356C15.5979 17.5733 14.3261 18.1001 13.0001 18.1001ZM9.35406 5.4541C9.44795 5.36021 9.50069 5.23287 9.50069 5.1001C9.50069 4.96732 9.44795 4.83998 9.35406 4.7461C9.26017 4.65221 9.13284 4.59947 9.00006 4.59947C8.86728 4.59947 8.73995 4.65221 8.64606 4.7461L6.00006 7.3931L4.85406 6.2461C4.80757 6.19961 4.75238 6.16273 4.69164 6.13757C4.6309 6.11242 4.5658 6.09947 4.50006 6.09947C4.43432 6.09947 4.36922 6.11242 4.30848 6.13757C4.24774 6.16273 4.19255 6.19961 4.14606 6.2461C4.09957 6.29259 4.0627 6.34777 4.03754 6.40851C4.01238 6.46925 3.99943 6.53435 3.99943 6.6001C3.99943 6.66584 4.01238 6.73094 4.03754 6.79168C4.0627 6.85242 4.09957 6.90761 4.14606 6.9541L5.64606 8.4541C5.69251 8.50066 5.74768 8.5376 5.80843 8.56281C5.86917 8.58802 5.93429 8.60099 6.00006 8.60099C6.06583 8.60099 6.13095 8.58802 6.19169 8.56281C6.25244 8.5376 6.30761 8.50066 6.35406 8.4541L9.35406 5.4541Z" fill="black"/>
</g>
</svg>
