<svg width="19" height="19" viewBox="0 0 19 19" fill="none" xmlns="http://www.w3.org/2000/svg">
<g id="octicon:heart-24">
<path id="Vector" d="M9.50008 16.3899L9.77162 16.9179C9.68766 16.9612 9.59456 16.9838 9.50008 16.9838C9.4056 16.9838 9.3125 16.9612 9.22854 16.9179L9.22616 16.9163L9.22062 16.914L9.20083 16.9037C7.7272 16.1034 6.33908 15.1548 5.05804 14.0727C3.00841 12.3286 0.791748 9.76283 0.791748 6.74025V6.73946C0.791748 4.00029 3.03137 1.97916 5.33275 1.97916C7.14883 1.97916 8.61421 2.94975 9.50008 4.43729C10.3867 2.94975 11.8513 1.97916 13.6674 1.97916C15.968 1.97916 18.2084 3.9995 18.2084 6.74025C18.2084 9.76283 15.991 12.3294 13.9421 14.0727C12.661 15.1547 11.2729 16.1033 9.79933 16.9037L9.77954 16.914L9.774 16.9163L9.77241 16.9171L9.50008 16.3899ZM5.33275 3.16666C3.68687 3.16666 1.97925 4.655 1.97925 6.74025C1.97925 9.19996 3.81908 11.4586 5.82754 13.1686C6.95106 14.1178 8.1613 14.9594 9.44229 15.6821L9.50008 15.7146L9.55787 15.6829C9.77241 15.5618 10.0812 15.3821 10.4525 15.1493C11.1966 14.6838 12.1862 14.0085 13.1726 13.1686C15.1811 11.4586 17.0209 9.19996 17.0209 6.74025C17.0209 4.655 15.3133 3.16666 13.6674 3.16666C12.0002 3.16666 10.6583 4.26629 10.063 6.05071C10.023 6.16826 9.94719 6.27034 9.84624 6.34263C9.74529 6.41493 9.62425 6.4538 9.50008 6.4538C9.37592 6.4538 9.25487 6.41493 9.15392 6.34263C9.05297 6.27034 8.97719 6.16826 8.93721 6.05071C8.34187 4.26629 6.99921 3.16666 5.33275 3.16666Z" fill="black"/>
</g>
</svg>
