<svg width="31" height="30" viewBox="0 0 31 30" fill="none" xmlns="http://www.w3.org/2000/svg">
<g id="Frame 70">
<g id="Group">
<path id="Vector" d="M1 12.0095V21.5358C1 25.4701 4.18187 28.6694 8.11453 28.6694H10.2149H22.7547C26.6784 28.6694 29.8693 25.479 29.8693 21.5358V11.893C29.8693 10.029 28.904 8.29038 27.322 7.30459L18.5986 1.90066C16.6591 0.699781 14.2101 0.699781 12.2706 1.90066L3.65454 7.24186C2.00104 8.2635 1 10.0648 1 12.0095Z" stroke="#757575" stroke-width="1.79235" stroke-miterlimit="10"/>
<path id="Vector_2" d="M10.5643 23.0683V28.6604H20.1904V22.8532C20.1904 21.4462 19.5916 20.1109 18.5369 19.17C16.7672 17.6017 14.1037 17.6285 12.3698 19.2327L12.1374 19.4478C11.1364 20.3888 10.5643 21.6972 10.5643 23.0683Z" stroke="#757575" stroke-width="1.79235" stroke-miterlimit="10"/>
</g>
</g>
</svg>
