<svg width="16" height="18" viewBox="0 0 16 18" fill="none" xmlns="http://www.w3.org/2000/svg">
<g id="Group">
<g id="Group 721">
<path id="Vector" fill-rule="evenodd" clip-rule="evenodd" d="M10.244 9.16753C10.1122 8.79493 9.86818 8.47234 9.54548 8.24418C9.22278 8.01601 8.83728 7.89349 8.44207 7.89348V7.41577H7.48665V7.89348C6.97986 7.89348 6.49383 8.0948 6.13548 8.45315C5.77713 8.81151 5.57581 9.29754 5.57581 9.80432C5.57581 10.3111 5.77713 10.7971 6.13548 11.1555C6.49383 11.5138 6.97986 11.7152 7.48665 11.7152V13.626C7.07104 13.626 6.71706 13.3609 6.58521 12.9892C6.56565 12.9284 6.53409 12.8721 6.4924 12.8237C6.45072 12.7754 6.39975 12.7358 6.34251 12.7075C6.28528 12.6791 6.22293 12.6625 6.15918 12.6587C6.09542 12.6548 6.03154 12.6638 5.97131 12.6851C5.91108 12.7064 5.85574 12.7395 5.80854 12.7826C5.76135 12.8256 5.72326 12.8777 5.69655 12.9357C5.66983 12.9937 5.65501 13.0565 5.65298 13.1203C5.65095 13.1842 5.66175 13.2478 5.68472 13.3074C5.8165 13.68 6.06053 14.0026 6.38323 14.2307C6.70593 14.4589 7.09143 14.5814 7.48665 14.5814V15.0591H8.44207V14.5814C8.94885 14.5814 9.43488 14.3801 9.79323 14.0218C10.1516 13.6634 10.3529 13.1774 10.3529 12.6706C10.3529 12.1638 10.1516 11.6778 9.79323 11.3194C9.43488 10.9611 8.94885 10.7597 8.44207 10.7597V8.8489C8.63965 8.84885 8.8324 8.91006 8.99375 9.02411C9.15511 9.13815 9.27713 9.29941 9.34303 9.48569C9.38522 9.60516 9.47314 9.70299 9.58746 9.75763C9.64406 9.78469 9.70544 9.80034 9.76809 9.80368C9.83074 9.80702 9.89343 9.79798 9.95259 9.77709C10.0117 9.7562 10.0662 9.72386 10.1129 9.68193C10.1595 9.63999 10.1975 9.58927 10.2245 9.53267C10.2516 9.47606 10.2672 9.41468 10.2706 9.35204C10.2739 9.28939 10.2649 9.22669 10.244 9.16753ZM7.48665 8.8489C7.23325 8.8489 6.99024 8.94956 6.81106 9.12874C6.63189 9.30791 6.53123 9.55093 6.53123 9.80432C6.53123 10.0577 6.63189 10.3007 6.81106 10.4799C6.99024 10.6591 7.23325 10.7597 7.48665 10.7597V8.8489ZM8.44207 13.626C8.69546 13.626 8.93847 13.5253 9.11765 13.3462C9.29683 13.167 9.39749 12.924 9.39749 12.6706C9.39749 12.4172 9.29683 12.1742 9.11765 11.995C8.93847 11.8158 8.69546 11.7152 8.44207 11.7152V13.626Z" fill="black"/>
<path id="Vector_2" fill-rule="evenodd" clip-rule="evenodd" d="M2.78259 1.50208C3.95489 0.928349 5.87815 0.25 7.98295 0.25C10.0438 0.25 11.9164 0.900163 13.0825 1.46625L13.1484 1.49826C13.5 1.67214 13.7838 1.83648 13.9835 1.96976L12.2188 4.54939C16.287 8.70834 19.4294 17.4461 7.98295 17.4461C-3.46347 17.4461 -0.405645 8.86694 3.69789 4.54939L1.94469 1.96976C2.07988 1.88138 2.25138 1.77867 2.45584 1.66975C2.55711 1.6153 2.66603 1.55893 2.78259 1.50208ZM11.0847 4.515L12.4973 2.44986C11.1836 2.54444 9.62054 2.85304 8.11575 3.28871C7.0409 3.59923 5.84663 3.55193 4.74073 3.34795C4.46205 3.29629 4.18528 3.23478 3.91094 3.16355L4.82815 4.51404C6.79392 5.21389 9.11846 5.21389 11.0847 4.515ZM4.27639 5.32806C6.57657 6.2166 9.34108 6.2166 11.6413 5.3271C12.6014 6.33923 13.4046 7.4894 14.0241 8.73939C14.6699 10.0569 15.0215 11.374 14.9642 12.509C14.9088 13.6044 14.4779 14.5402 13.4938 15.2358C12.4682 15.9605 10.7432 16.4907 7.98247 16.4907C5.21891 16.4907 3.48578 15.9695 2.45058 15.253C1.45934 14.566 1.02414 13.6431 0.962517 12.5625C0.898026 11.4399 1.24198 10.1295 1.88545 8.80292C2.49931 7.53795 3.35584 6.32026 4.27639 5.32806ZM3.72703 2.12071C4.10919 2.23441 4.50856 2.33329 4.91366 2.40829C5.94073 2.59747 6.97068 2.62517 7.84966 2.37056C8.87398 2.07215 9.91579 1.83746 10.9691 1.66784C10.0901 1.40319 9.06209 1.20542 7.98247 1.20542C6.33676 1.20542 4.80187 1.6645 3.72703 2.12071Z" fill="black"/>
</g>
</g>
</svg>
