<svg width="21" height="21" viewBox="0 0 21 21" fill="none" xmlns="http://www.w3.org/2000/svg">
<g id="mdi:invite">
<path id="Vector" d="M16.625 14.875V16.625H6.125V14.875C6.125 14.875 6.125 11.375 11.375 11.375C16.625 11.375 16.625 14.875 16.625 14.875ZM14 7C14 6.48082 13.846 5.97331 13.5576 5.54163C13.2692 5.10995 12.8592 4.7735 12.3795 4.57482C11.8999 4.37614 11.3721 4.32415 10.8629 4.42544C10.3537 4.52673 9.88596 4.77673 9.51884 5.14384C9.15173 5.51096 8.90172 5.97869 8.80044 6.48789C8.69915 6.99709 8.75114 7.52489 8.94982 8.00454C9.1485 8.4842 9.48495 8.89417 9.91663 9.18261C10.3483 9.47105 10.8558 9.625 11.375 9.625C12.0712 9.625 12.7389 9.34844 13.2312 8.85616C13.7234 8.36387 14 7.69619 14 7ZM16.8 11.4275C17.2783 11.8688 17.6639 12.4009 17.9343 12.9928C18.2048 13.5847 18.3546 14.2246 18.375 14.875V16.625H21V14.875C21 14.875 21 11.8563 16.8 11.4275ZM15.75 4.375C15.4856 4.37516 15.2229 4.41649 14.9713 4.4975C15.4832 5.2316 15.7576 6.10504 15.7576 7C15.7576 7.89497 15.4832 8.7684 14.9713 9.5025C15.2229 9.58351 15.4856 9.62484 15.75 9.625C16.4462 9.625 17.1139 9.34844 17.6062 8.85616C18.0984 8.36387 18.375 7.69619 18.375 7C18.375 6.30381 18.0984 5.63613 17.6062 5.14384C17.1139 4.65156 16.4462 4.375 15.75 4.375ZM7 8.75H4.375V6.125H2.625V8.75H0V10.5H2.625V13.125H4.375V10.5H7V8.75Z" fill="black"/>
</g>
</svg>
