<svg width="30" height="30" viewBox="0 0 30 30" fill="none" xmlns="http://www.w3.org/2000/svg">
<g id="material-symbols:bookmark-manager-outline">
<path id="Vector" d="M5 25C4.3125 25 3.72375 24.755 3.23375 24.265C2.74375 23.775 2.49916 23.1867 2.5 22.5V7.5C2.5 6.8125 2.745 6.22375 3.235 5.73375C3.725 5.24375 4.31333 4.99917 5 5H12.5L15 7.5H25C25.6875 7.5 26.2762 7.745 26.7662 8.235C27.2562 8.725 27.5008 9.31334 27.5 10V13.5H25V10H5V22.5H15V25H5ZM22.875 18.1563L24.2187 19.5L19.375 24.3125V25.625H20.6875L25.5312 20.8125L26.8437 22.125L21.4687 27.5H17.5V23.5313L22.875 18.1563ZM26.8437 22.125L22.875 18.1563L24.6875 16.3438C24.9167 16.1146 25.2083 16 25.5625 16C25.9167 16 26.2083 16.1146 26.4375 16.3438L28.6562 18.5625C28.8854 18.7917 29 19.0833 29 19.4375C29 19.7917 28.8854 20.0833 28.6562 20.3125L26.8437 22.125Z" fill="#757575"/>
</g>
</svg>
