<svg width="28" height="29" viewBox="0 0 28 29" fill="none" xmlns="http://www.w3.org/2000/svg">
<g id="material-symbols:order-approve-outline">
<path id="Vector" d="M20.1542 23.7202L24.2083 19.6952L22.9833 18.4702L20.1542 21.2411L19.0167 20.1035L17.7917 21.3577L20.1542 23.7202ZM7 10.5952H21V8.26188H7V10.5952ZM21 26.9285C19.3861 26.9285 18.0102 26.3596 16.8723 25.2217C15.7344 24.0838 15.1659 22.7083 15.1667 21.0952C15.1667 19.4813 15.7356 18.1054 16.8735 16.9676C18.0114 15.8297 19.3869 15.2611 21 15.2619C22.6139 15.2619 23.9898 15.8308 25.1277 16.9687C26.2656 18.1066 26.8341 19.4821 26.8333 21.0952C26.8333 22.7091 26.2644 24.085 25.1265 25.2229C23.9886 26.3608 22.6131 26.9293 21 26.9285ZM3.5 25.7619V5.92855C3.5 5.28688 3.72867 4.73738 4.186 4.28005C4.64333 3.82272 5.19244 3.59444 5.83333 3.59522H22.1667C22.8083 3.59522 23.3578 3.82388 23.8152 4.28122C24.2725 4.73855 24.5008 5.28766 24.5 5.92855V13.7161C24.1306 13.541 23.7514 13.3952 23.3625 13.2786C22.9736 13.1619 22.575 13.0744 22.1667 13.016V5.92855H5.83333V22.3202H12.9208C13.0181 22.923 13.1689 23.4966 13.3735 24.041C13.5781 24.5855 13.8452 25.1008 14.175 25.5869L14 25.7619L12.25 24.0119L10.5 25.7619L8.75 24.0119L7 25.7619L5.25 24.0119L3.5 25.7619ZM7 19.9286H12.9208C12.9792 19.5202 13.0667 19.1216 13.1833 18.7327C13.3 18.3438 13.4458 17.9647 13.6208 17.5952H7V19.9286ZM7 15.2619H15.2833C16.0222 14.5424 16.8828 13.9735 17.8652 13.555C18.8475 13.1366 19.8924 12.9278 21 12.9285H7V15.2619Z" fill="black"/>
</g>
</svg>
