<svg width="30" height="29" viewBox="0 0 30 29" fill="none" xmlns="http://www.w3.org/2000/svg">
<g id="Frame" clip-path="url(#clip0_2_1169)">
<g id="Group">
<path id="Vector" d="M14.7997 28.0274C22.2522 28.0274 28.2937 21.9697 28.2937 14.4973C28.2937 7.02484 22.2522 0.967224 14.7997 0.967224C7.34716 0.967224 1.30569 7.02484 1.30569 14.4973C1.30569 21.9697 7.34716 28.0274 14.7997 28.0274Z" stroke="#757575" stroke-width="1.79235" stroke-miterlimit="10"/>
<path id="Vector_2" d="M8.52457 26.1511V21.2179C8.52457 19.2203 9.64571 17.4006 11.4202 16.503C13.8802 15.2575 16.8081 15.3869 19.1472 16.8507L19.252 16.9154C20.8006 17.8778 21.7363 19.5761 21.7363 21.4039V26.1592" stroke="#757575" stroke-width="1.79235" stroke-miterlimit="10"/>
<path id="Vector_3" d="M15.1304 15.3465C17.5493 15.3465 19.5101 13.3804 19.5101 10.9551C19.5101 8.52976 17.5493 6.56366 15.1304 6.56366C12.7116 6.56366 10.7507 8.52976 10.7507 10.9551C10.7507 13.3804 12.7116 15.3465 15.1304 15.3465Z" stroke="#757575" stroke-width="1.79235" stroke-miterlimit="10"/>
</g>
</g>
<defs>
<clipPath id="clip0_2_1169">
<rect width="28.6011" height="28.6776" fill="white" transform="translate(0.499176 0.158478)"/>
</clipPath>
</defs>
</svg>
