<svg width="24" height="24" viewBox="0 0 24 24" fill="none" xmlns="http://www.w3.org/2000/svg">
<g id="iconamoon:profile-circle-thin">
<g id="Group">
<path id="Vector" d="M21 12.0001C21.003 13.7869 20.4715 15.5337 19.474 17.0161C18.6514 18.2431 17.5391 19.2484 16.2355 19.9433C14.9319 20.6382 13.4772 21.0011 12 21.0001C10.5228 21.0011 9.06808 20.6382 7.76451 19.9433C6.46093 19.2484 5.34865 18.2431 4.526 17.0161C3.74273 15.8485 3.2439 14.5137 3.06951 13.1186C2.89511 11.7234 3.05 10.3069 3.52175 8.98239C3.9935 7.65793 4.769 6.4624 5.78607 5.49167C6.80314 4.52093 8.0335 3.80198 9.37851 3.39245C10.7235 2.98292 12.1458 2.89421 13.5312 3.13342C14.9167 3.37263 16.2269 3.93311 17.3567 4.76993C18.4865 5.60675 19.4046 6.69664 20.0373 7.95221C20.67 9.20779 20.9997 10.5941 21 12.0001Z" stroke="black"/>
<path id="Vector_2" d="M13.5 9C13.5 9.39782 13.342 9.77936 13.0607 10.0607C12.7794 10.342 12.3978 10.5 12 10.5V11.5C12.3283 11.5 12.6534 11.4353 12.9567 11.3097C13.26 11.1841 13.5356 10.9999 13.7678 10.7678C13.9999 10.5356 14.1841 10.26 14.3097 9.95671C14.4353 9.65339 14.5 9.3283 14.5 9H13.5ZM12 10.5C11.6022 10.5 11.2207 10.342 10.9393 10.0607C10.658 9.77936 10.5 9.39782 10.5 9H9.50001C9.50001 9.3283 9.56467 9.65339 9.69031 9.95671C9.81595 10.26 10.0001 10.5356 10.2322 10.7678C10.7011 11.2366 11.337 11.5 12 11.5V10.5ZM10.5 9C10.5 8.60218 10.658 8.22064 10.9393 7.93934C11.2207 7.65804 11.6022 7.5 12 7.5V6.5C11.337 6.5 10.7011 6.76339 10.2322 7.23223C9.7634 7.70107 9.50001 8.33696 9.50001 9H10.5ZM12 7.5C12.3978 7.5 12.7794 7.65804 13.0607 7.93934C13.342 8.22064 13.5 8.60218 13.5 9H14.5C14.5 8.33696 14.2366 7.70107 13.7678 7.23223C13.2989 6.76339 12.663 6.5 12 6.5V7.5ZM5.16601 17.856L4.68601 17.714L4.60901 17.975L4.78601 18.182L5.16601 17.856ZM18.834 17.856L19.214 18.182L19.391 17.975L19.313 17.714L18.834 17.856ZM9.00001 15.5H15V14.5H9.00001V15.5ZM9.00001 14.5C8.03094 14.5002 7.0878 14.813 6.31076 15.3921C5.53372 15.9711 4.96325 16.7854 4.68601 17.714L5.64501 17.999C5.86087 17.2769 6.30393 16.6437 6.90836 16.1935C7.51278 15.7433 8.24633 15.5001 9.00001 15.5V14.5ZM12 20.5C10.7733 20.5013 9.56086 20.2364 8.44644 19.7237C7.33201 19.2109 6.34209 18.4625 5.54501 17.53L4.78601 18.182C5.67706 19.2238 6.78344 20.0599 8.02888 20.6327C9.27431 21.2055 10.6292 21.5014 12 21.5V20.5ZM15 15.5C15.7538 15.5001 16.4875 15.7435 17.0919 16.1939C17.6963 16.6443 18.1393 17.2777 18.355 18L19.313 17.714C19.0358 16.7854 18.4663 15.9711 17.6893 15.3921C16.9122 14.813 15.9691 14.5002 15 14.5V15.5ZM18.455 17.53C17.6579 18.4625 16.668 19.2109 15.5536 19.7237C14.4392 20.2364 13.2267 20.5013 12 20.5V21.5C13.3709 21.5014 14.7257 21.2055 15.9711 20.6327C17.2166 20.0599 18.323 19.2238 19.214 18.182L18.454 17.531L18.455 17.53Z" fill="black"/>
</g>
</g>
</svg>
