<svg width="19" height="20" viewBox="0 0 19 20" fill="none" xmlns="http://www.w3.org/2000/svg">
<path id="Vector" d="M13.3828 0.985369C13.686 0.675345 14.0474 0.42864 14.4463 0.259515C14.8452 0.09039 15.2735 0.00219932 15.7066 4.06137e-05C16.1396 -0.00211809 16.5688 0.0817981 16.9694 0.246938C17.3699 0.412079 17.7338 0.655168 18.04 0.962154C18.3463 1.26914 18.5888 1.63393 18.7536 2.03545C18.9183 2.43697 19.0021 2.86724 19 3.3014C18.9979 3.73556 18.9099 4.165 18.7413 4.56489C18.5726 4.96478 18.3266 5.32719 18.0174 5.63117L14.9571 8.70015C14.4393 8.59833 13.9108 8.56317 13.3842 8.5955L17.179 4.7902C17.3769 4.59637 17.5345 4.3651 17.6426 4.10977C17.7507 3.85445 17.8072 3.58015 17.8088 3.30278C17.8104 3.0254 17.7571 2.75047 17.6519 2.49391C17.5467 2.23735 17.3918 2.00427 17.1962 1.80816C17.0005 1.61206 16.7679 1.45684 16.512 1.35149C16.256 1.24615 15.9818 1.19277 15.7051 1.19446C15.4284 1.19615 15.1548 1.25288 14.9002 1.36134C14.6456 1.46981 14.4149 1.62786 14.2216 1.82634L2.7543 13.3236C2.54356 13.5353 2.39331 13.7997 2.31921 14.0894L1.41583 17.6293L4.94727 16.7246C5.23652 16.6504 5.50054 16.4996 5.71164 16.2879L7.60285 14.3919C7.57121 14.9197 7.60644 15.4494 7.70771 15.9683L6.55049 17.1289C6.18883 17.4914 5.7365 17.7497 5.24097 17.8766L0.740197 19.0301C0.640427 19.0557 0.535724 19.0549 0.436395 19.0276C0.337066 19.0003 0.246533 18.9476 0.173709 18.8746C0.100885 18.8015 0.0482802 18.7108 0.0210717 18.6112C-0.00613679 18.5116 -0.00701069 18.4067 0.018536 18.3066L1.17006 13.795C1.29684 13.2985 1.55446 12.8454 1.91592 12.4831L13.3828 0.985369ZM13.7595 20C16.6419 20 18.9786 17.6574 18.9786 14.7677C18.9786 11.8776 16.6419 9.53541 13.7595 9.53541C10.8771 9.53541 8.5404 11.8776 8.5404 14.7677C8.5404 17.6574 10.8771 20 13.7595 20ZM13.7595 18.8108C12.8944 18.8122 12.052 18.5334 11.3578 18.016L17.0001 12.3599C17.445 12.9616 17.7145 13.6754 17.7784 14.4217C17.8424 15.1679 17.6983 15.9173 17.3623 16.5863C17.0262 17.2552 16.5114 17.8175 15.8753 18.2103C15.2391 18.6031 14.5066 18.811 13.7595 18.8108ZM16.1612 11.5189L10.5189 17.175C9.94331 16.3963 9.66589 15.4362 9.73721 14.4696C9.80852 13.503 10.2238 12.5943 10.9074 11.9089C11.5911 11.2236 12.4975 10.8072 13.4617 10.7357C14.4258 10.6642 15.3835 10.9423 16.1603 11.5194L16.1612 11.5189Z" fill="black"/>
</svg>
