<svg width="21" height="21" viewBox="0 0 21 21" fill="none" xmlns="http://www.w3.org/2000/svg">
<g id="ep:setting">
<path id="Vector" d="M12.3192 1.3125C12.4582 1.3125 12.5935 1.35661 12.7058 1.43845C12.8181 1.5203 12.9015 1.63566 12.944 1.76794L13.6659 4.011C13.969 4.15931 14.2591 4.326 14.536 4.51369L16.8408 4.01756C16.9767 3.98855 17.1183 4.00342 17.2452 4.06003C17.3721 4.11664 17.4777 4.21206 17.5469 4.33256L19.3661 7.48125C19.4355 7.60168 19.4649 7.74106 19.4501 7.87929C19.4352 8.01752 19.3768 8.14746 19.2834 8.25037L17.7018 9.996C17.7248 10.3307 17.7248 10.6666 17.7018 11.0014L19.2834 12.7496C19.3768 12.8525 19.4352 12.9825 19.4501 13.1207C19.4649 13.2589 19.4355 13.3983 19.3661 13.5188L17.5469 16.6687C17.4775 16.789 17.3718 16.8842 17.2449 16.9405C17.118 16.9969 16.9765 17.0116 16.8408 16.9824L14.536 16.4863C14.2604 16.6727 13.969 16.8407 13.6672 16.989L12.944 19.2321C12.9015 19.3643 12.8181 19.4797 12.7058 19.5616C12.5935 19.6434 12.4582 19.6875 12.3192 19.6875H8.68099C8.54205 19.6875 8.4067 19.6434 8.29442 19.5616C8.18215 19.4797 8.09875 19.3643 8.05624 19.2321L7.33567 16.9903C7.0333 16.8425 6.74165 16.6736 6.46286 16.485L4.15942 16.9824C4.02353 17.0115 3.88194 16.9966 3.75504 16.94C3.62815 16.8834 3.52249 16.7879 3.4533 16.6674L1.63417 13.5188C1.56471 13.3983 1.53529 13.2589 1.55015 13.1207C1.56501 12.9825 1.62339 12.8525 1.71686 12.7496L3.29842 11.0014C3.27551 10.6675 3.27551 10.3325 3.29842 9.99862L1.71686 8.25037C1.62339 8.14746 1.56501 8.01752 1.55015 7.87929C1.53529 7.74106 1.56471 7.60168 1.63417 7.48125L3.4533 4.33125C3.52268 4.21099 3.62842 4.11584 3.7553 4.05947C3.88218 4.0031 4.02368 3.98843 4.15942 4.01756L6.46286 4.515C6.74111 4.32731 7.03249 4.158 7.33567 4.00969L8.05755 1.76794C8.09993 1.63609 8.18293 1.52103 8.29467 1.43922C8.40642 1.35742 8.54118 1.31306 8.67967 1.3125H12.3179H12.3192ZM11.8389 2.625H9.16136L8.41586 4.94419L7.91317 5.18963C7.66605 5.31056 7.4275 5.44825 7.19917 5.60175L6.73455 5.91675L4.35105 5.40225L3.0123 7.72275L4.64636 9.53137L4.60699 10.0879C4.58813 10.3623 4.58813 10.6377 4.60699 10.9121L4.64636 11.4686L3.00967 13.2773L4.34974 15.5977L6.73324 15.0846L7.19786 15.3983C7.42618 15.5517 7.66474 15.6894 7.91186 15.8104L8.41455 16.0558L9.16136 18.375H11.8415L12.5896 16.0545L13.091 15.8104C13.3378 15.6897 13.576 15.552 13.8037 15.3983L14.267 15.0846L16.6518 15.5977L17.9905 13.2773L16.3552 11.4686L16.3946 10.9121C16.4135 10.6373 16.4135 10.3614 16.3946 10.0866L16.3552 9.53006L17.9919 7.72275L16.6518 5.40225L14.267 5.91412L13.8037 5.60175C13.576 5.44794 13.3379 5.31023 13.091 5.18963L12.5896 4.9455L11.8402 2.625H11.8389ZM10.5001 6.5625C11.5444 6.5625 12.5459 6.97734 13.2843 7.71577C14.0228 8.45419 14.4376 9.45571 14.4376 10.5C14.4376 11.5443 14.0228 12.5458 13.2843 13.2842C12.5459 14.0227 11.5444 14.4375 10.5001 14.4375C9.45582 14.4375 8.4543 14.0227 7.71588 13.2842C6.97745 12.5458 6.56261 11.5443 6.56261 10.5C6.56261 9.45571 6.97745 8.45419 7.71588 7.71577C8.4543 6.97734 9.45582 6.5625 10.5001 6.5625ZM10.5001 7.875C9.80392 7.875 9.13624 8.15156 8.64396 8.64384C8.15167 9.13613 7.87511 9.80381 7.87511 10.5C7.87511 11.1962 8.15167 11.8639 8.64396 12.3562C9.13624 12.8484 9.80392 13.125 10.5001 13.125C11.1963 13.125 11.864 12.8484 12.3563 12.3562C12.8485 11.8639 13.1251 11.1962 13.1251 10.5C13.1251 9.80381 12.8485 9.13613 12.3563 8.64384C11.864 8.15156 11.1963 7.875 10.5001 7.875Z" fill="black"/>
</g>
</svg>
