<svg width="17" height="20" viewBox="0 0 17 20" fill="none" xmlns="http://www.w3.org/2000/svg">
<path id="Vector" d="M14.1667 19.1001C13.3796 19.1001 12.7106 18.823 12.1597 18.2688C11.6088 17.7147 11.3333 17.0418 11.3333 16.2501C11.3333 16.1393 11.3412 16.0243 11.3569 15.9052C11.3727 15.7862 11.3963 15.6795 11.4278 15.5851L4.76944 11.6901C4.50185 11.9276 4.20278 12.1138 3.87222 12.2487C3.54167 12.3836 3.19537 12.4507 2.83333 12.4501C2.0463 12.4501 1.37731 12.173 0.826389 11.6188C0.275463 11.0647 0 10.3918 0 9.6001C0 8.80843 0.275463 8.13551 0.826389 7.58135C1.37731 7.02718 2.0463 6.7501 2.83333 6.7501C3.19537 6.7501 3.54167 6.81755 3.87222 6.95245C4.20278 7.08735 4.50185 7.27323 4.76944 7.5101L11.4278 3.6151C11.3963 3.5201 11.3727 3.41338 11.3569 3.29495C11.3412 3.17651 11.3333 3.06156 11.3333 2.9501C11.3333 2.15843 11.6088 1.48551 12.1597 0.931348C12.7106 0.377181 13.3796 0.100098 14.1667 0.100098C14.9537 0.100098 15.6227 0.377181 16.1736 0.931348C16.7245 1.48551 17 2.15843 17 2.9501C17 3.74176 16.7245 4.41468 16.1736 4.96885C15.6227 5.52301 14.9537 5.8001 14.1667 5.8001C13.8046 5.8001 13.4583 5.73296 13.1278 5.5987C12.7972 5.46443 12.4981 5.27823 12.2306 5.0401L5.57222 8.9351C5.6037 9.0301 5.62732 9.13713 5.64306 9.2562C5.6588 9.37526 5.66667 9.4899 5.66667 9.6001C5.66667 9.71093 5.6588 9.82588 5.64306 9.94495C5.62732 10.064 5.6037 10.1707 5.57222 10.2651L12.2306 14.1601C12.4981 13.9226 12.7972 13.7367 13.1278 13.6024C13.4583 13.4682 13.8046 13.4007 14.1667 13.4001C14.9537 13.4001 15.6227 13.6772 16.1736 14.2313C16.7245 14.7855 17 15.4584 17 16.2501C17 17.0418 16.7245 17.7147 16.1736 18.2688C15.6227 18.823 14.9537 19.1001 14.1667 19.1001ZM14.1667 3.9001C14.4343 3.9001 14.6587 3.8089 14.8401 3.6265C15.0214 3.4441 15.1117 3.21863 15.1111 2.9501C15.1111 2.68093 15.0204 2.45515 14.8391 2.27275C14.6578 2.09035 14.4336 1.99946 14.1667 2.0001C13.8991 2.0001 13.6746 2.0913 13.4933 2.2737C13.3119 2.4561 13.2216 2.68156 13.2222 2.9501C13.2222 3.21926 13.3129 3.44505 13.4942 3.62745C13.6756 3.80985 13.8997 3.90073 14.1667 3.9001ZM2.83333 10.5501C3.10093 10.5501 3.32539 10.4589 3.50672 10.2765C3.68806 10.0941 3.77841 9.86863 3.77778 9.6001C3.77778 9.33093 3.68711 9.10515 3.50578 8.92275C3.32444 8.74035 3.1003 8.64946 2.83333 8.6501C2.56574 8.6501 2.34128 8.7413 2.15994 8.9237C1.97861 9.1061 1.88826 9.33156 1.88889 9.6001C1.88889 9.86926 1.97956 10.095 2.16089 10.2774C2.34222 10.4598 2.56637 10.5507 2.83333 10.5501ZM14.1667 17.2001C14.4343 17.2001 14.6587 17.1089 14.8401 16.9265C15.0214 16.7441 15.1117 16.5186 15.1111 16.2501C15.1111 15.9809 15.0204 15.7551 14.8391 15.5727C14.6578 15.3903 14.4336 15.2995 14.1667 15.3001C13.8991 15.3001 13.6746 15.3913 13.4933 15.5737C13.3119 15.7561 13.2216 15.9816 13.2222 16.2501C13.2222 16.5193 13.3129 16.745 13.4942 16.9274C13.6756 17.1098 13.8997 17.2007 14.1667 17.2001Z" fill="black"/>
</svg>
