<svg width="18" height="23" viewBox="0 0 18 23" fill="none" xmlns="http://www.w3.org/2000/svg">
<g id="Group 723">
<path id="Vector" d="M16.2 0.5H1.8C1.32261 0.5 0.864773 0.689642 0.527208 1.02721C0.189642 1.36477 0 1.82261 0 2.3V20.3C0 20.7774 0.189642 21.2352 0.527208 21.5728C0.864773 21.9104 1.32261 22.1 1.8 22.1H16.2C16.6774 22.1 17.1352 21.9104 17.4728 21.5728C17.8104 21.2352 18 20.7774 18 20.3V2.3C18 1.82261 17.8104 1.36477 17.4728 1.02721C17.1352 0.689642 16.6774 0.5 16.2 0.5ZM16.2 20.3H1.8V2.3H16.2V20.3Z" fill="black"/>
<path id="Vector_2" d="M3.59998 4.1001H14.4V5.9001H3.59998V4.1001ZM3.59998 7.7001H9.89998V9.5001H3.59998V7.7001ZM5.39998 18.5001H12.6L8.99998 15.8001L5.39998 18.5001ZM15.3 17.6001V12.2001L10.8 14.9001L15.3 17.6001ZM3.59998 12.2001V17.6001L7.19998 14.9001L3.59998 12.2001ZM12.6 11.3001H5.39998L8.99998 14.0001L12.6 11.3001Z" fill="black"/>
</g>
</svg>
