<svg width="26" height="25" viewBox="0 0 26 25" fill="none" xmlns="http://www.w3.org/2000/svg">
<g id="fa6-regular:message" clip-path="url(#clip0_105_554)">
<path id="Vector" d="M8.48214 17.3663C9.72925 17.3663 10.7411 18.3781 10.7411 19.6252V20.3782L14.153 17.8181C14.5436 17.5263 15.0189 17.3663 15.5083 17.3663H22.0357C22.4498 17.3663 22.7887 17.0275 22.7887 16.6133V3.05976C22.7887 2.64562 22.4498 2.30678 22.0357 2.30678H3.96428C3.55014 2.30678 3.21131 2.64562 3.21131 3.05976V16.6133C3.21131 17.0275 3.55014 17.3663 3.96428 17.3663H8.48214ZM10.7411 23.2019L10.7317 23.2113L10.4916 23.3901L9.6869 23.9925C9.46101 24.1619 9.15511 24.1901 8.89628 24.0631C8.63744 23.936 8.48214 23.6772 8.48214 23.3901V19.6252H3.96428C2.30303 19.6252 0.952377 18.2746 0.952377 16.6133V3.05976C0.952377 1.3985 2.30303 0.0478516 3.96428 0.0478516H22.0357C23.697 0.0478516 25.0476 1.3985 25.0476 3.05976V16.6133C25.0476 18.2746 23.697 19.6252 22.0357 19.6252H15.5083L10.7411 23.2019Z" fill="black"/>
</g>
<defs>
<clipPath id="clip0_105_554">
<rect width="24.0952" height="24.0952" fill="white" transform="translate(0.952377 0.0478516)"/>
</clipPath>
</defs>
</svg>
